<svg width="131" height="130" viewBox="0 0 131 130" fill="none" xmlns="http://www.w3.org/2000/svg">
<g filter="url(#filter0_d_6460_711)">
<circle cx="65.5" cy="60" r="60" fill="white"/>
</g>
<path d="M52.25 51.375C51.6814 51.375 51.1255 51.2064 50.6527 50.8905C50.1799 50.5746 49.8114 50.1256 49.5938 49.6002C49.3762 49.0749 49.3193 48.4968 49.4302 47.9391C49.5412 47.3814 49.815 46.8691 50.2171 46.4671C50.6191 46.065 51.1314 45.7912 51.6891 45.6802C52.2468 45.5693 52.8249 45.6262 53.3502 45.8438C53.8756 46.0614 54.3246 46.4299 54.6405 46.9027C54.9564 47.3755 55.125 47.9314 55.125 48.5C55.125 49.2625 54.8221 49.9938 54.2829 50.5329C53.7438 51.0721 53.0125 51.375 52.25 51.375ZM75.25 68.625C74.6814 68.625 74.1255 68.7936 73.6527 69.1095C73.1799 69.4254 72.8114 69.8745 72.5938 70.3998C72.3762 70.9251 72.3193 71.5032 72.4302 72.0609C72.5412 72.6186 72.815 73.1309 73.2171 73.5329C73.6191 73.935 74.1314 74.2088 74.6891 74.3198C75.2468 74.4307 75.8249 74.3738 76.3502 74.1562C76.8755 73.9386 77.3246 73.5701 77.6405 73.0973C77.9564 72.6245 78.125 72.0686 78.125 71.5C78.125 70.7375 77.8221 70.0062 77.2829 69.4671C76.7438 68.9279 76.0125 68.625 75.25 68.625ZM104 60C104 63.7519 101.301 66.5658 98.9184 69.0491C97.5636 70.465 96.162 71.9241 95.6338 73.207C95.145 74.3822 95.1162 76.33 95.0875 78.2167C95.0336 81.7242 94.9761 85.6989 92.2125 88.4625C89.4489 91.2261 85.4742 91.2836 81.9667 91.3375C80.08 91.3662 78.1322 91.395 76.957 91.8838C75.6741 92.412 74.215 93.8136 72.7991 95.1684C70.3158 97.5511 67.5019 100.25 63.75 100.25C59.9981 100.25 57.1842 97.5511 54.7009 95.1684C53.285 93.8136 51.8259 92.412 50.543 91.8838C49.3678 91.395 47.42 91.3662 45.5333 91.3375C42.0258 91.2836 38.0511 91.2261 35.2875 88.4625C32.5239 85.6989 32.4664 81.7242 32.4125 78.2167C32.3837 76.33 32.355 74.3822 31.8662 73.207C31.338 71.9241 29.9364 70.465 28.5816 69.0491C26.1989 66.5658 23.5 63.7519 23.5 60C23.5 56.2481 26.1989 53.4342 28.5816 50.9509C29.9364 49.535 31.338 48.0759 31.8662 46.793C32.355 45.6178 32.3837 43.67 32.4125 41.7833C32.4664 38.2758 32.5239 34.3011 35.2875 31.5375C38.0511 28.7739 42.0258 28.7164 45.5333 28.6625C47.42 28.6337 49.3678 28.605 50.543 28.1162C51.8259 27.588 53.285 26.1864 54.7009 24.8316C57.1842 22.4489 59.9981 19.75 63.75 19.75C67.5019 19.75 70.3158 22.4489 72.7991 24.8316C74.215 26.1864 75.6741 27.588 76.957 28.1162C78.1322 28.605 80.08 28.6337 81.9667 28.6625C85.4742 28.7164 89.4489 28.7739 92.2125 31.5375C94.9761 34.3011 95.0336 38.2758 95.0875 41.7833C95.1162 43.67 95.145 45.6178 95.6338 46.793C96.162 48.0759 97.5636 49.535 98.9184 50.9509C101.301 53.4342 104 56.2481 104 60ZM52.25 57.125C53.9559 57.125 55.6234 56.6192 57.0418 55.6714C58.4602 54.7237 59.5657 53.3767 60.2185 51.8006C60.8713 50.2246 61.0421 48.4904 60.7093 46.8173C60.3765 45.1443 59.555 43.6074 58.3488 42.4012C57.1426 41.195 55.6057 40.3735 53.9327 40.0407C52.2596 39.7079 50.5254 39.8787 48.9494 40.5315C47.3733 41.1843 46.0263 42.2898 45.0786 43.7082C44.1308 45.1266 43.625 46.7941 43.625 48.5C43.625 50.7875 44.5337 52.9813 46.1512 54.5988C47.7687 56.2163 49.9625 57.125 52.25 57.125ZM80.1591 47.6591C80.4262 47.3919 80.6381 47.0748 80.7826 46.7258C80.9272 46.3768 81.0016 46.0028 81.0016 45.625C81.0016 45.2472 80.9272 44.8732 80.7826 44.5242C80.6381 44.1752 80.4262 43.8581 80.1591 43.5909C79.8919 43.3238 79.5748 43.1119 79.2258 42.9674C78.8768 42.8228 78.5028 42.7484 78.125 42.7484C77.7472 42.7484 77.3732 42.8228 77.0242 42.9674C76.6752 43.1119 76.3581 43.3238 76.0909 43.5909L47.3409 72.3409C47.0738 72.6081 46.8619 72.9252 46.7174 73.2742C46.5728 73.6232 46.4984 73.9972 46.4984 74.375C46.4984 74.7528 46.5728 75.1268 46.7174 75.4758C46.8619 75.8248 47.0738 76.1419 47.3409 76.4091C47.8804 76.9485 48.6121 77.2516 49.375 77.2516C49.7528 77.2516 50.1268 77.1772 50.4758 77.0326C50.8248 76.8881 51.1419 76.6762 51.4091 76.4091L80.1591 47.6591ZM83.875 71.5C83.875 69.7941 83.3692 68.1266 82.4214 66.7082C81.4737 65.2898 80.1267 64.1843 78.5506 63.5315C76.9746 62.8787 75.2404 62.7079 73.5673 63.0407C71.8943 63.3735 70.3574 64.195 69.1512 65.4012C67.945 66.6074 67.1235 68.1443 66.7907 69.8173C66.4579 71.4904 66.6287 73.2246 67.2815 74.8006C67.9343 76.3767 69.0398 77.7237 70.4582 78.6714C71.8766 79.6192 73.5441 80.125 75.25 80.125C77.5375 80.125 79.7313 79.2163 81.3488 77.5988C82.9663 75.9813 83.875 73.7875 83.875 71.5Z" fill="#00A85A"/>
<defs>
<filter id="filter0_d_6460_711" x="0.700001" y="0" width="129.6" height="129.6" filterUnits="userSpaceOnUse" color-interpolation-filters="sRGB">
<feFlood flood-opacity="0" result="BackgroundImageFix"/>
<feColorMatrix in="SourceAlpha" type="matrix" values="0 0 0 0 0 0 0 0 0 0 0 0 0 0 0 0 0 0 127 0" result="hardAlpha"/>
<feOffset dy="4.8"/>
<feGaussianBlur stdDeviation="2.4"/>
<feComposite in2="hardAlpha" operator="out"/>
<feColorMatrix type="matrix" values="0 0 0 0 0 0 0 0 0 0 0 0 0 0 0 0 0 0 0.25 0"/>
<feBlend mode="normal" in2="BackgroundImageFix" result="effect1_dropShadow_6460_711"/>
<feBlend mode="normal" in="SourceGraphic" in2="effect1_dropShadow_6460_711" result="shape"/>
</filter>
</defs>
</svg>
