<svg width="20" height="20" viewBox="0 0 20 20" fill="none" xmlns="http://www.w3.org/2000/svg">
<path d="M12.5461 4.13941C12.7408 4.13903 12.9295 4.2069 13.0794 4.33124C13.1638 4.40126 13.2335 4.48726 13.2847 4.5843C13.3358 4.68134 13.3673 4.78752 13.3773 4.89677C13.3874 5.00601 13.3758 5.11617 13.3433 5.22093C13.3108 5.3257 13.2579 5.42301 13.1877 5.50729L9.45439 9.97792L13.0544 14.4569C13.1236 14.5422 13.1753 14.6404 13.2065 14.7458C13.2377 14.8511 13.2478 14.9616 13.2362 15.0709C13.2245 15.1802 13.1915 15.2861 13.1388 15.3826C13.0862 15.479 13.015 15.5641 12.9294 15.6329C12.8432 15.7089 12.7422 15.7661 12.6328 15.8012C12.5234 15.8362 12.408 15.8482 12.2937 15.8365C12.1795 15.8247 12.0689 15.7894 11.9689 15.7329C11.8689 15.6763 11.7817 15.5997 11.7127 15.5078L7.68773 10.5034C7.56516 10.3541 7.49815 10.1669 7.49815 9.97375C7.49815 9.78056 7.56516 9.59336 7.68773 9.44411L11.8544 4.43967C11.938 4.33874 12.0442 4.25895 12.1644 4.20678C12.2845 4.1546 12.4153 4.13152 12.5461 4.13941Z" fill="#666666"/>
</svg>
