<svg width="25" height="26" viewBox="0 0 25 26" fill="none" xmlns="http://www.w3.org/2000/svg">
<path d="M9.35352 20.1309C9.96441 20.1309 10.554 20.3491 11.0234 20.7441L11.2168 20.9238C11.7118 21.4322 11.9902 22.1231 11.9902 22.8438C11.9901 23.474 11.7773 24.0811 11.3926 24.5635L11.2168 24.7627C10.7219 25.2709 10.0516 25.5556 9.35352 25.5557C8.74264 25.5557 8.153 25.3374 7.68359 24.9424L7.49023 24.7627C6.99531 24.2544 6.71594 23.5642 6.71582 22.8438C6.71582 22.2133 6.92956 21.6056 7.31445 21.123L7.49023 20.9238C7.98511 20.4157 8.65548 20.1309 9.35352 20.1309ZM19.1084 20.1309C19.7193 20.1309 20.3089 20.3491 20.7783 20.7441L20.9717 20.9238C21.4667 21.4322 21.7461 22.1231 21.7461 22.8438C21.746 23.474 21.5322 24.0811 21.1475 24.5635L20.9717 24.7627C20.4768 25.2708 19.8064 25.5557 19.1084 25.5557C18.4103 25.5556 17.74 25.2709 17.2451 24.7627C16.7502 24.2544 16.4718 23.5642 16.4717 22.8438C16.4717 22.1231 16.7501 21.4322 17.2451 20.9238C17.74 20.4156 18.4103 20.1309 19.1084 20.1309ZM9.35352 21.9775C9.15595 21.9775 8.96596 22.0482 8.81543 22.1748L8.75293 22.2324C8.59459 22.395 8.50684 22.6155 8.50684 22.8438C8.50694 23.0434 8.57426 23.2366 8.69727 23.3906L8.75293 23.4541C8.91141 23.6169 9.12762 23.709 9.35352 23.709C9.55111 23.7089 9.74108 23.6384 9.8916 23.5117L9.95312 23.4541C10.1114 23.2916 10.2001 23.0719 10.2002 22.8438C10.2002 22.6439 10.1328 22.45 10.0098 22.2959L9.95312 22.2324C9.79471 22.0699 9.5792 21.9776 9.35352 21.9775ZM19.1084 21.9775C18.9108 21.9776 18.7208 22.0482 18.5703 22.1748L18.5088 22.2324C18.3504 22.395 18.2617 22.6155 18.2617 22.8438C18.2618 23.0434 18.3292 23.2366 18.4521 23.3906L18.5088 23.4541C18.6672 23.6166 18.8827 23.7089 19.1084 23.709C19.306 23.709 19.496 23.6383 19.6465 23.5117L19.709 23.4541C19.8672 23.2916 19.955 23.0719 19.9551 22.8438C19.9551 22.6439 19.8878 22.4501 19.7646 22.2959L19.709 22.2324C19.5505 22.0697 19.3343 21.9775 19.1084 21.9775ZM1.33984 0.810547H2.11816C3.20423 0.810711 3.91794 1.4642 4.37598 2.18457L4.55664 2.49512C4.85148 3.04766 5.06672 3.69267 5.2373 4.28516L5.27148 4.40332L5.39355 4.39355L5.52148 4.3877H22.9385C23.925 4.38787 24.6645 5.29961 24.5117 6.28125L24.4688 6.47754L21.9209 15.6504C21.7285 16.3432 21.3489 16.9627 20.8291 17.4385L20.5977 17.6338C19.9588 18.1291 19.1803 18.3963 18.3809 18.3965H10.0918L9.79102 18.3838C9.09242 18.3249 8.42174 18.0626 7.86035 17.623C7.29899 17.1835 6.87375 16.5883 6.63281 15.9102L6.54102 15.6143L5.48145 11.6475H5.48242L5.48145 11.6445L3.72754 5.57324V5.56641L3.72461 5.55566L3.5625 4.95898C3.39832 4.37258 3.2226 3.82469 2.9873 3.38574H2.98633C2.83613 3.10185 2.69364 2.91852 2.54883 2.80664C2.39805 2.69028 2.25311 2.65723 2.11914 2.65723H1.33984C1.13342 2.65716 0.933731 2.58322 0.774414 2.44922L0.708984 2.3877C0.540643 2.21482 0.445312 1.97956 0.445312 1.7334C0.445343 1.51805 0.517451 1.31067 0.648438 1.14648L0.708984 1.0791C0.856104 0.928144 1.04814 0.835257 1.25195 0.814453L1.33984 0.810547ZM5.84375 6.42676L7.20117 11.1309L7.21973 11.2021V11.2041L8.2666 15.124C8.4926 15.9624 9.23681 16.5497 10.0918 16.5498H18.3809C18.7414 16.5498 19.0934 16.4447 19.3955 16.248L19.5225 16.1582C19.8095 15.9358 20.027 15.6346 20.1523 15.292L20.2012 15.1426L22.6211 6.4248L22.6738 6.23438H5.78809L5.84375 6.42676Z" fill="#B43338" stroke="white" stroke-width="0.3"/>
</svg>
