<svg width="16" height="16" viewBox="0 0 16 16" fill="none" xmlns="http://www.w3.org/2000/svg">
<mask id="mask0_3862_1202" style="mask-type:alpha" maskUnits="userSpaceOnUse" x="0" y="0" width="16" height="16">
<rect width="16" height="16" fill="#D9D9D9"/>
</mask>
<g mask="url(#mask0_3862_1202)">
<path d="M9 10.3549H3C3.36329 10.1487 3.67321 9.85991 3.90479 9.51173C4.13638 9.16355 4.28316 8.76573 4.33333 8.3503V6.34567C4.37304 5.49776 4.6422 4.67667 5.11197 3.97039C5.58173 3.26411 6.23439 2.69927 7 2.33642C7 1.98198 7.14048 1.64205 7.39052 1.39143C7.64057 1.1408 7.97971 1 8.33333 1C8.68696 1 9.02609 1.1408 9.27614 1.39143C9.52619 1.64205 9.66667 1.98198 9.66667 2.33642C10.4323 2.69927 11.0849 3.26411 11.5547 3.97039C12.0245 4.67667 12.2936 5.49776 12.3333 6.34567V7.68209M6.33333 10.3549V11.0231C6.33324 11.3557 6.41568 11.683 6.57323 11.9756C6.73077 12.2683 6.95848 12.5171 7.23583 12.6995C7.51318 12.882 7.83146 12.9925 8.16201 13.021C8.49255 13.0494 8.82498 12.9951 9.12933 12.8627M13.6667 11.6913L12.3333 10.3549M11 9.01851L12.3333 10.3549M11 11.6913L12.3333 10.3549M13.6667 9.01851L12.3333 10.3549" stroke="black" stroke-width="1.3" stroke-linecap="round" stroke-linejoin="round"/>
</g>
</svg>
