<svg width="23" height="24" viewBox="0 0 23 24" fill="none" xmlns="http://www.w3.org/2000/svg">
<path d="M0.120695 9.51843C0.120695 9.51843 0.120508 9.51782 0.120367 9.51721L0.0888672 9.43457L0.120695 9.51843Z" fill="#B43338"/>
<path d="M0.311523 7.66023L0.835492 7.31804C0.835773 7.31804 0.836055 7.31771 0.836383 7.31738L0.311523 7.66023Z" fill="#B43338"/>
<path d="M22.0204 12.2093C21.9947 12.142 21.9818 12.071 21.9818 12C21.9818 11.9287 21.9947 11.8574 22.0206 11.7894L22.8113 9.71405L22.8856 9.51849C22.9672 9.30455 23.0067 9.08142 23.0067 8.86195C23.007 8.25324 22.704 7.66589 22.1707 7.31728L21.9082 7.14591L20.1345 5.98772C20.014 5.90878 19.926 5.78728 19.8884 5.64802L19.2533 3.30206C19.0342 2.49441 18.3027 1.93917 17.4731 1.93917C17.4417 1.93917 17.4105 1.93978 17.3791 1.94161L14.9611 2.0625V2.06222L14.9249 2.06316C14.7891 2.06316 14.6583 2.01722 14.553 1.93247L12.7827 0.506533L12.6609 0.408611C12.324 0.136502 11.9123 -0.000279228 11.5035 2.02229e-06C11.0947 -0.000607353 10.683 0.136502 10.3458 0.408611L10.3463 0.408283L8.64914 1.77516L8.45419 1.93219C8.34844 2.01727 8.21714 2.06321 8.082 2.06321L8.05045 2.0625L5.63381 1.94194L5.63227 1.94161C5.59477 1.93946 5.56186 1.93917 5.53373 1.93917C4.704 1.93917 3.97266 2.49436 3.75352 3.30206L3.11841 5.64802C3.08063 5.78785 2.99217 5.90967 2.871 5.98894L2.69606 6.10313L0.835406 7.31789C0.302391 7.66683 -0.000281054 8.2538 1.95834e-07 8.86224C1.95834e-07 9.08138 0.0393283 9.30356 0.12061 9.51722L0.986156 11.7894L0.986297 11.7897C1.01198 11.857 1.02502 11.9287 1.02502 12C1.02502 12.0713 1.01217 12.1426 0.986297 12.21L0.120938 14.4815L0.121078 14.4812C0.0395158 14.6952 1.95834e-07 14.918 1.95834e-07 15.1374C-0.000281054 15.7462 0.302391 16.3338 0.836156 16.6827L2.34638 17.6689L2.87142 18.0117C2.9925 18.0906 3.08063 18.2118 3.11841 18.352L3.75352 20.6977C3.97247 21.5053 4.70414 22.0605 5.53373 22.0608C5.56186 22.0605 5.59252 22.0602 5.62524 22.0584L5.55577 22.062L8.06072 21.9369H8.0595L8.08294 21.9366C8.21728 21.9366 8.34816 21.9825 8.45372 22.0676L10.3461 23.592H10.3463C10.683 23.8635 11.0946 24.0003 11.5035 24C11.9122 24.0004 12.3239 23.8635 12.6608 23.5918L14.7159 21.9362L14.5534 22.0673C14.659 21.9822 14.7895 21.9366 14.924 21.9366L14.9521 21.9372L17.3985 22.0593L17.3862 22.0587C17.4128 22.0599 17.4418 22.0605 17.4732 22.0608C18.3024 22.0605 19.0344 21.5056 19.2534 20.6977L19.8885 18.352C19.9262 18.2118 20.0143 18.0909 20.1351 18.012L22.1718 16.6821C22.7045 16.3332 23.007 15.7462 23.0068 15.1377C23.0068 14.9183 22.9673 14.6951 22.8855 14.4809L22.0204 12.2093ZM20.8493 11.3432C20.7687 11.5547 20.7283 11.7775 20.7283 12C20.7283 12.2228 20.7687 12.4456 20.8493 12.6571L21.7141 14.9278L21.7142 14.9281C21.7407 14.9976 21.7531 15.068 21.7531 15.1378C21.7528 15.333 21.6564 15.5216 21.4852 15.6333L19.4503 16.9619H19.4505C19.0714 17.2092 18.7965 17.5875 18.6782 18.0246L18.0432 20.3702C17.9736 20.6291 17.7379 20.8073 17.4732 20.8069L17.438 20.806L17.4291 20.8057L15.0163 20.6854H15.018C14.9882 20.6836 14.9569 20.683 14.924 20.6827C14.5036 20.6827 14.095 20.8265 13.7665 21.0913L13.6038 21.2226L11.8743 22.6157C11.7653 22.7036 11.6359 22.7464 11.5035 22.7464C11.3713 22.7464 11.2417 22.7036 11.1326 22.6157L9.24033 21.0913C8.91192 20.8268 8.5035 20.683 8.08298 20.683C8.05481 20.683 8.02191 20.6833 7.98427 20.6854V20.6858L5.56364 20.8066L5.56439 20.8064L5.53383 20.807C5.26936 20.8073 5.03339 20.6291 4.96378 20.3702L4.32872 18.0246C4.21041 17.5875 3.93558 17.2093 3.5565 16.962L2.04656 15.9761L1.52184 15.6333C1.35075 15.5219 1.25405 15.3331 1.25372 15.1375C1.25386 15.0674 1.26614 14.997 1.29244 14.9281L2.1578 12.6569L2.15766 12.6572C2.23828 12.4454 2.27869 12.2229 2.27869 12C2.27869 11.7773 2.23847 11.5545 2.15766 11.343L1.32436 9.1561L1.29253 9.07285C1.26605 9.00305 1.25381 8.93236 1.25363 8.86228C1.25395 8.66672 1.35052 8.47847 1.52156 8.3671L3.55659 7.03852L3.55692 7.03819C3.93577 6.79031 4.21036 6.41231 4.32867 5.97553L4.96373 3.62958C5.0332 3.37097 5.2695 3.19252 5.53378 3.19285L5.55736 3.19313L7.99064 3.31463L7.99327 3.31496C8.0228 3.31617 8.05252 3.31683 8.08205 3.31711C8.50242 3.31711 8.91117 3.17353 9.23991 2.90911L11.133 1.38431C11.2418 1.29647 11.3711 1.25391 11.5035 1.25363C11.6357 1.25363 11.7652 1.29647 11.8741 1.38431L11.7522 1.28606L13.7668 2.90878C14.096 3.17381 14.5052 3.31678 14.925 3.31678C14.9562 3.31678 14.9842 3.31585 15.009 3.31524H15.0024L17.4434 3.19341H17.445L17.4732 3.1928C17.7376 3.19247 17.9737 3.37092 18.0432 3.62953L18.6783 5.97549C18.7966 6.41222 19.0711 6.79022 19.45 7.03814L21.7477 8.53842L21.4852 8.36705C21.6564 8.47847 21.7528 8.66667 21.7531 8.86195C21.7531 8.93208 21.7407 9.00249 21.7141 9.07252L20.7376 11.6358L20.8493 11.3432Z" fill="#B43338"/>
<path d="M8.69785 10.6078L8.05173 10.7348C8.01774 10.7418 7.99909 10.7688 8.00584 10.8034L8.48649 13.2491L8.45851 13.2549L6.60563 11.0788C6.57502 11.0433 6.53766 11.0326 6.49759 11.0406L5.81152 11.1756C5.77754 11.1823 5.75888 11.2092 5.76624 11.2438L6.50766 15.0148C6.51423 15.0494 6.54165 15.068 6.57563 15.0613L7.22171 14.9342C7.25569 14.9272 7.27435 14.9 7.26779 14.8654L6.78769 12.4255L6.81629 12.42L8.67315 14.5893C8.70376 14.6248 8.73587 14.6362 8.7818 14.6276L9.46191 14.4935C9.49585 14.4868 9.51451 14.4595 9.50719 14.425L8.76591 10.6537C8.75921 10.6192 8.73184 10.6011 8.69785 10.6078Z" fill="#B43338"/>
<path d="M12.6692 13.109L10.9943 13.4383C10.9717 13.4433 10.9577 13.4341 10.9538 13.4111L10.7951 12.6052C10.7903 12.5826 10.7997 12.5691 10.8223 12.5643L12.2172 12.29C12.2512 12.2833 12.2698 12.2563 12.2633 12.2221L12.1439 11.6164C12.1372 11.5825 12.1098 11.5638 12.0758 11.5702L10.6811 11.8447C10.6584 11.849 10.6443 11.8395 10.6398 11.8169L10.4883 11.0456C10.4837 11.0226 10.493 11.0089 10.5157 11.0046L12.1905 10.6753C12.2245 10.6685 12.2432 10.6413 12.2358 10.607L12.1158 9.99584C12.1091 9.96125 12.0818 9.94287 12.0477 9.94962L9.55622 10.4397C9.52148 10.4464 9.50344 10.4736 9.51019 10.5082L10.2516 14.2795C10.2589 14.3138 10.2855 14.3321 10.3203 14.3254L12.8118 13.8354C12.8459 13.8286 12.8646 13.8014 12.8573 13.7671L12.7371 13.1556C12.7306 13.1212 12.7032 13.1023 12.6692 13.109Z" fill="#B43338"/>
<path d="M17.1855 8.93923L16.454 9.08304C16.4141 9.09073 16.3947 9.11276 16.3966 9.15406L16.3394 11.6989L16.3273 11.7011L15.1626 9.39673C15.1439 9.36396 15.1165 9.34592 15.0825 9.35267L14.5852 9.45031C14.5459 9.45827 14.5272 9.48518 14.5225 9.52254L14.3391 12.0922L14.3278 12.0947L13.2876 9.76493C13.2757 9.73128 13.2483 9.71356 13.2084 9.72148L12.4709 9.86595C12.431 9.87392 12.4243 9.89904 12.437 9.93237L14.1838 13.5056C14.2025 13.5378 14.2297 13.5565 14.2639 13.5497L14.8353 13.4371C14.8752 13.4294 14.8939 13.4019 14.8985 13.3654L15.1032 10.8147L15.1146 10.8126L16.264 13.0968C16.282 13.1289 16.3094 13.1476 16.3494 13.1396L16.9208 13.027C16.9607 13.0196 16.9848 12.9909 16.9842 12.955L17.2422 8.98727C17.2408 8.95146 17.2254 8.93126 17.1855 8.93923Z" fill="#B43338"/>
</svg>
