<svg width="24" height="24" viewBox="0 0 24 24" fill="none" xmlns="http://www.w3.org/2000/svg">
<path d="M12.0146 0.349609C12.2118 0.349609 12.4025 0.418145 12.5537 0.541992L12.6162 0.598633L23.416 11.3994C23.5679 11.5591 23.6522 11.7716 23.6504 11.9922C23.6485 12.215 23.5589 12.4284 23.4014 12.5859C23.2438 12.7435 23.0305 12.833 22.8076 12.835C22.6127 12.8367 22.424 12.7714 22.2725 12.6514L22.21 12.5967L21.2646 11.6514V20.4004C21.2645 21.2621 20.9228 22.0889 20.3135 22.6982C19.704 23.3077 18.8766 23.6504 18.0146 23.6504H6.01465C5.15281 23.6503 4.32625 23.3076 3.7168 22.6982C3.1074 22.0888 2.76476 21.2622 2.76465 20.4004V11.6514L1.81543 12.6006L1.81152 12.6055C1.73314 12.6866 1.63881 12.7514 1.53516 12.7959C1.43156 12.8403 1.31975 12.8633 1.20703 12.8643C1.09429 12.8652 0.982281 12.8445 0.87793 12.8018C0.773478 12.759 0.678433 12.695 0.598633 12.6152C0.519077 12.5356 0.455755 12.4411 0.413086 12.3369C0.381056 12.2586 0.361167 12.1757 0.353516 12.0918L0.349609 12.0068C0.350641 11.8941 0.374449 11.7823 0.418945 11.6787C0.45234 11.6011 0.497287 11.5291 0.551758 11.4648L0.609375 11.4033L0.614258 11.3994L3.01367 8.99902L11.4141 0.598633C11.5734 0.439454 11.7894 0.349669 12.0146 0.349609Z" stroke="#B43338" stroke-width="0.7"/>
<path d="M12.0384 19.3464C11.2171 19.3464 10.4811 19.213 9.83042 18.9464C9.17976 18.6797 8.65709 18.285 8.26242 17.7624C7.87842 17.2397 7.67576 16.6104 7.65442 15.8744H10.5664C10.6091 16.2904 10.7531 16.6104 10.9984 16.8344C11.2438 17.0477 11.5638 17.1544 11.9584 17.1544C12.3638 17.1544 12.6838 17.0637 12.9184 16.8824C13.1531 16.6904 13.2704 16.429 13.2704 16.0984C13.2704 15.821 13.1744 15.5917 12.9824 15.4104C12.8011 15.229 12.5718 15.0797 12.2944 14.9624C12.0278 14.845 11.6438 14.7117 11.1424 14.5624C10.4171 14.3384 9.82509 14.1144 9.36642 13.8904C8.90776 13.6664 8.51309 13.3357 8.18242 12.8984C7.85176 12.461 7.68642 11.8904 7.68642 11.1864C7.68642 10.141 8.06509 9.32504 8.82242 8.73837C9.57976 8.14104 10.5664 7.84237 11.7824 7.84237C13.0198 7.84237 14.0171 8.14104 14.7744 8.73837C15.5318 9.32504 15.9371 10.1464 15.9904 11.2024H13.0304C13.0091 10.8397 12.8758 10.557 12.6304 10.3544C12.3851 10.141 12.0704 10.0344 11.6864 10.0344C11.3558 10.0344 11.0891 10.125 10.8864 10.3064C10.6838 10.477 10.5824 10.7277 10.5824 11.0584C10.5824 11.421 10.7531 11.7037 11.0944 11.9064C11.4358 12.109 11.9691 12.3277 12.6944 12.5624C13.4198 12.8077 14.0064 13.0424 14.4544 13.2664C14.9131 13.4904 15.3078 13.8157 15.6384 14.2424C15.9691 14.669 16.1344 15.2184 16.1344 15.8904C16.1344 16.5304 15.9691 17.1117 15.6384 17.6344C15.3184 18.157 14.8491 18.573 14.2304 18.8824C13.6118 19.1917 12.8811 19.3464 12.0384 19.3464Z" fill="#B43338"/>
</svg>
