<svg width="24" height="24" viewBox="0 0 24 24" fill="none" xmlns="http://www.w3.org/2000/svg">
<path d="M0.609499 11.4032L0.609536 11.4033L0.613837 11.3989L3.01386 8.99892L11.4139 0.598872C11.5733 0.43952 11.7895 0.35 12.0149 0.35C12.2403 0.35 12.4564 0.439519 12.6158 0.598872L23.4136 11.3966C23.5672 11.5567 23.6522 11.7706 23.6502 11.9925C23.6483 12.2154 23.5589 12.4286 23.4013 12.5862C23.2437 12.7438 23.0305 12.8332 22.8076 12.8351C22.5857 12.837 22.3718 12.7521 22.2117 12.5985L21.8625 12.2492L21.265 11.6517V12.4967V20.4C21.265 21.2619 20.9226 22.0886 20.3131 22.6981C19.7036 23.3076 18.8769 23.65 18.0149 23.65H6.01481C5.15285 23.65 4.32619 23.3076 3.71669 22.6981C3.10718 22.0886 2.76477 21.2619 2.76477 20.4V12.4967V11.6517L2.16728 12.2492L1.81568 12.6008L1.81564 12.6008L1.81142 12.6051C1.73301 12.6863 1.63921 12.7511 1.53551 12.7956C1.4318 12.8402 1.32026 12.8636 1.2074 12.8646C1.09454 12.8656 0.982607 12.8441 0.878142 12.8013C0.773678 12.7586 0.678772 12.6955 0.598963 12.6157C0.519153 12.5359 0.456037 12.441 0.413298 12.3365C0.370558 12.232 0.349051 12.1201 0.350032 12.0072C0.351013 11.8944 0.374462 11.7828 0.41901 11.6791C0.463558 11.5754 0.528314 11.4816 0.609499 11.4032Z" stroke="#034703" stroke-width="0.7"/>
<path d="M12.0384 19.3464C11.2171 19.3464 10.4811 19.213 9.83042 18.9464C9.17976 18.6797 8.65709 18.285 8.26242 17.7624C7.87842 17.2397 7.67576 16.6104 7.65442 15.8744H10.5664C10.6091 16.2904 10.7531 16.6104 10.9984 16.8344C11.2438 17.0477 11.5638 17.1544 11.9584 17.1544C12.3638 17.1544 12.6838 17.0637 12.9184 16.8824C13.1531 16.6904 13.2704 16.429 13.2704 16.0984C13.2704 15.821 13.1744 15.5917 12.9824 15.4104C12.8011 15.229 12.5718 15.0797 12.2944 14.9624C12.0278 14.845 11.6438 14.7117 11.1424 14.5624C10.4171 14.3384 9.82509 14.1144 9.36642 13.8904C8.90776 13.6664 8.51309 13.3357 8.18242 12.8984C7.85176 12.461 7.68642 11.8904 7.68642 11.1864C7.68642 10.141 8.06509 9.32504 8.82242 8.73837C9.57976 8.14104 10.5664 7.84237 11.7824 7.84237C13.0198 7.84237 14.0171 8.14104 14.7744 8.73837C15.5318 9.32504 15.9371 10.1464 15.9904 11.2024H13.0304C13.0091 10.8397 12.8758 10.557 12.6304 10.3544C12.3851 10.141 12.0704 10.0344 11.6864 10.0344C11.3558 10.0344 11.0891 10.125 10.8864 10.3064C10.6838 10.477 10.5824 10.7277 10.5824 11.0584C10.5824 11.421 10.7531 11.7037 11.0944 11.9064C11.4358 12.109 11.9691 12.3277 12.6944 12.5624C13.4198 12.8077 14.0064 13.0424 14.4544 13.2664C14.9131 13.4904 15.3078 13.8157 15.6384 14.2424C15.9691 14.669 16.1344 15.2184 16.1344 15.8904C16.1344 16.5304 15.9691 17.1117 15.6384 17.6344C15.3184 18.157 14.8491 18.573 14.2304 18.8824C13.6118 19.1917 12.8811 19.3464 12.0384 19.3464Z" fill="#034703"/>
</svg>
