<svg width="34" height="39" viewBox="0 0 34 39" fill="none" xmlns="http://www.w3.org/2000/svg">
<mask id="mask0_5769_3700" style="mask-type:alpha" maskUnits="userSpaceOnUse" x="0" y="0" width="34" height="39">
<rect width="34" height="39" fill="#EC486B"/>
</mask>
<g mask="url(#mask0_5769_3700)">
<path d="M26.4839 11.4873C28.8247 13.9337 30.1634 17.2358 30.2171 20.6953C30.2707 24.1548 29.0351 27.5005 26.7715 30.0249L26.4839 30.3359L20.4732 36.6172C19.7105 37.4139 18.6866 37.8778 17.609 37.9149C16.5313 37.952 15.4804 37.5596 14.6692 36.8171L14.4652 36.6172L8.45306 30.3344C6.06202 27.8351 4.71875 24.4454 4.71875 20.9109C4.71875 17.3763 6.06202 13.9866 8.45306 11.4873C10.8441 8.98806 14.0871 7.58398 17.4685 7.58398C20.8499 7.58398 24.0929 8.98806 26.4839 11.4873ZM17.4685 16.4686C16.9104 16.4686 16.3578 16.5835 15.8421 16.8067C15.3265 17.03 14.858 17.3572 14.4634 17.7697C14.0687 18.1822 13.7557 18.6719 13.5421 19.2109C13.3285 19.7498 13.2186 20.3275 13.2186 20.9109C13.2186 21.4942 13.3285 22.0719 13.5421 22.6108C13.7557 23.1498 14.0687 23.6395 14.4634 24.052C14.858 24.4645 15.3265 24.7917 15.8421 25.015C16.3578 25.2382 16.9104 25.3531 17.4685 25.3531C18.5956 25.3531 19.6766 24.8851 20.4736 24.052C21.2706 23.2189 21.7184 22.089 21.7184 20.9109C21.7184 19.7327 21.2706 18.6028 20.4736 17.7697C19.6766 16.9366 18.5956 16.4686 17.4685 16.4686Z" fill="#B43338"/>
</g>
</svg>
