<svg width="16" height="16" viewBox="0 0 16 16" fill="none" xmlns="http://www.w3.org/2000/svg">
<mask id="mask0_3862_1191" style="mask-type:alpha" maskUnits="userSpaceOnUse" x="0" y="0" width="16" height="16">
<rect width="16" height="16" fill="#D9D9D9"/>
</mask>
<g mask="url(#mask0_3862_1191)">
<path d="M9.42857 7.87301V7.88064M3.33333 14.746V2.52733C3.33333 2.12226 3.49388 1.73378 3.77965 1.44735C4.06542 1.16092 4.453 1 4.85714 1H10.9524C11.3565 1 11.7441 1.16092 12.0299 1.44735C12.3156 1.73378 12.4762 2.12226 12.4762 2.52733V7.88064M3.33333 14.746H8.28571M3.33333 14.746H2" stroke="#222222" stroke-width="1.3" stroke-linecap="round" stroke-linejoin="round"/>
<path d="M10.9953 11.6914V10.0209C10.9953 9.75504 11.1013 9.5001 11.2899 9.31213C11.4785 9.12416 11.7343 9.01855 12.0011 9.01855C12.2679 9.01855 12.5237 9.12416 12.7123 9.31213C12.9009 9.5001 13.0069 9.75504 13.0069 10.0209V11.6914M10.1006 10.6891H13.9022C13.9989 10.6891 14.0944 10.7099 14.1822 10.7501C14.2701 10.7903 14.3482 10.849 14.4111 10.9221C14.4741 10.9953 14.5204 11.0811 14.547 11.1737C14.5735 11.2664 14.5797 11.3636 14.565 11.4589L14.1442 14.1825C14.1077 14.4192 13.9873 14.635 13.8049 14.7909C13.6225 14.9468 13.3901 15.0325 13.1498 15.0324H10.8526C10.6123 15.0324 10.38 14.9467 10.1977 14.7908C10.0153 14.6349 9.895 14.4191 9.85849 14.1825L9.43772 11.4589C9.42303 11.3636 9.42917 11.2664 9.45573 11.1737C9.48229 11.0811 9.52863 10.9953 9.59159 10.9221C9.65455 10.849 9.73263 10.7903 9.82048 10.7501C9.90833 10.7099 10.0039 10.6891 10.1006 10.6891Z" stroke="#222222" stroke-linecap="round" stroke-linejoin="round"/>
</g>
</svg>
