<svg width="24" height="24" viewBox="0 0 24 24" fill="none" xmlns="http://www.w3.org/2000/svg">
<path d="M11.9619 17.9857H18.7719C19.0371 18.0006 19.3017 17.9473 19.5404 17.8309C19.7791 17.7145 19.9841 17.5388 20.1357 17.3208C20.2873 17.1027 20.3805 16.8494 20.4065 16.585C20.4324 16.3207 20.3902 16.0541 20.2839 15.8107C19.9239 14.7227 18.4889 13.4177 18.4889 12.1337C18.4889 9.28373 18.4889 8.53373 17.0849 6.85773C16.6305 6.31826 16.0672 5.88102 15.4319 5.57473L14.6489 5.19473C14.5175 5.11543 14.4042 5.00951 14.3162 4.88379C14.2282 4.75807 14.1674 4.61532 14.1379 4.46473C14.0596 3.95714 13.7912 3.49831 13.3871 3.18132C12.983 2.86432 12.4735 2.71289 11.9619 2.75773C11.4595 2.72756 10.9639 2.88575 10.5719 3.20139C10.1799 3.51704 9.9196 3.96747 9.84189 4.46473C9.80664 4.62052 9.73758 4.76666 9.6396 4.89281C9.54162 5.01896 9.41711 5.12203 9.27489 5.19473L8.49189 5.57473C7.85692 5.88114 7.29394 6.31837 6.83989 6.85773C5.43689 8.53373 5.43689 9.28373 5.43689 12.1337C5.43689 13.4177 4.06689 14.5917 3.70689 15.7447C3.48989 16.4417 3.36989 17.9857 5.18689 17.9857H11.9619Z" stroke="#B43338" stroke-width="1.5" stroke-linecap="round" stroke-linejoin="round"/>
<path d="M15.225 17.9863C15.2335 18.4172 15.155 18.8453 14.994 19.2451C14.8331 19.6448 14.5931 20.008 14.2883 20.3127C13.9836 20.6174 13.6205 20.8575 13.2207 21.0184C12.821 21.1794 12.3928 21.2579 11.962 21.2493C11.531 21.2585 11.1026 21.1803 10.7027 21.0195C10.3027 20.8588 9.93942 20.6188 9.63467 20.3139C9.32991 20.0091 9.08999 19.6457 8.92935 19.2457C8.76872 18.8457 8.69069 18.4173 8.69996 17.9863" stroke="#B43338" stroke-width="1.5" stroke-linecap="round" stroke-linejoin="round"/>
</svg>
