<svg width="24" height="24" viewBox="0 0 24 24" fill="none" xmlns="http://www.w3.org/2000/svg">
<path d="M15 11C15.2652 11 15.5196 10.8946 15.7071 10.7071C15.8946 10.5196 16 10.2652 16 10C16 9.73478 15.8946 9.48043 15.7071 9.29289C15.5196 9.10536 15.2652 9 15 9C14.7348 9 14.4804 9.10536 14.2929 9.29289C14.1054 9.48043 14 9.73478 14 10C14 10.2652 14.1054 10.5196 14.2929 10.7071C14.4804 10.8946 14.7348 11 15 11ZM10 10C10 10.2652 9.89464 10.5196 9.70711 10.7071C9.51957 10.8946 9.26522 11 9 11C8.73478 11 8.48043 10.8946 8.29289 10.7071C8.10536 10.5196 8 10.2652 8 10C8 9.73478 8.10536 9.48043 8.29289 9.29289C8.48043 9.10536 8.73478 9 9 9C9.26522 9 9.51957 9.10536 9.70711 9.29289C9.89464 9.48043 10 9.73478 10 10Z" fill="#034703"/>
<path fill-rule="evenodd" clip-rule="evenodd" d="M8.24993 5.276V5C8.24993 4.00544 8.64502 3.05161 9.34828 2.34835C10.0515 1.64509 11.0054 1.25 11.9999 1.25C12.9945 1.25 13.9483 1.64509 14.6516 2.34835C15.3548 3.05161 15.7499 4.00544 15.7499 5V5.276C16.4079 5.296 16.9949 5.333 17.5149 5.398C18.7159 5.55 19.6889 5.868 20.4399 6.602C20.6906 6.84733 20.9119 7.11733 21.1039 7.412C21.6759 8.292 21.7979 9.308 21.7109 10.516C21.6249 11.698 21.3289 13.182 20.9519 15.065L20.9319 15.16C20.6719 16.467 20.4639 17.507 20.2059 18.326C19.9409 19.168 19.6019 19.85 19.0359 20.402C18.8406 20.592 18.6306 20.764 18.4059 20.918C17.7539 21.365 17.0189 21.563 16.1409 21.658C15.2879 21.75 14.2279 21.75 12.8949 21.75H11.1049C9.77193 21.75 8.71193 21.75 7.85893 21.658C6.98093 21.563 6.24593 21.365 5.59393 20.918C5.37025 20.7634 5.15955 20.5908 4.96393 20.402C4.39793 19.85 4.05893 19.168 3.79393 18.326C3.53693 17.507 3.32893 16.467 3.06693 15.16L3.04793 15.065C2.67193 13.182 2.37493 11.698 2.28993 10.516C2.20193 9.308 2.32393 8.292 2.89593 7.412C3.08706 7.11859 3.30972 6.84697 3.55993 6.602C4.31193 5.868 5.28393 5.55 6.48493 5.398C7.00493 5.333 7.59193 5.296 8.24993 5.276ZM9.74993 5C9.74993 4.40326 9.98698 3.83097 10.4089 3.40901C10.8309 2.98705 11.4032 2.75 11.9999 2.75C12.5967 2.75 13.169 2.98705 13.5909 3.40901C14.0129 3.83097 14.2499 4.40326 14.2499 5V5.252C13.8259 5.25067 13.3779 5.25 12.9059 5.25H11.0949C10.6223 5.25 10.1739 5.25067 9.74993 5.252V5ZM4.60793 7.675C5.02293 7.27 5.61593 7.02 6.67293 6.886C7.74293 6.751 9.16293 6.75 11.1489 6.75H12.8519C14.8379 6.75 16.2559 6.751 17.3269 6.886C18.3839 7.02 18.9769 7.27 19.3919 7.675C19.5633 7.843 19.7146 8.02767 19.8459 8.229C20.1619 8.715 20.2909 9.346 20.2149 10.409C20.1369 11.485 19.8599 12.876 19.4709 14.824C19.1989 16.183 19.0059 17.144 18.7749 17.875C18.5499 18.592 18.3099 19.015 17.9889 19.328C17.8558 19.4576 17.7119 19.5756 17.5589 19.681C17.1889 19.934 16.7269 20.086 15.9799 20.167C15.2169 20.249 14.2369 20.25 12.8509 20.25H11.1499C9.76393 20.25 8.78393 20.249 8.01993 20.167C7.27393 20.087 6.81293 19.934 6.44293 19.681C6.28953 19.5754 6.14535 19.457 6.01193 19.327C5.69093 19.015 5.45193 18.592 5.22593 17.875C4.99593 17.143 4.80193 16.183 4.53093 14.824C4.14093 12.876 3.86393 11.484 3.78693 10.408C3.70993 9.346 3.83893 8.715 4.15493 8.229C4.28572 8.02841 4.43795 7.84265 4.60893 7.675" fill="#034703"/>
</svg>
