<svg width="24" height="24" viewBox="0 0 24 24" fill="none" xmlns="http://www.w3.org/2000/svg">
<path d="M3.00447 4.91297C2.72714 4.97141 2.49278 5.13696 2.29748 5.40478C1.97719 5.8479 2.00063 5.20514 2.00063 13.3857C2.00063 21.6929 1.96938 20.9479 2.34826 21.4251C2.5045 21.6199 2.62949 21.7221 2.78183 21.7903C2.99275 21.8779 3.23883 21.8828 12 21.8828C20.7612 21.8828 21.0072 21.8779 21.2182 21.7903C21.3705 21.7221 21.4955 21.6199 21.6517 21.4251C22.0306 20.9479 21.9994 21.6929 21.9994 13.3857C21.9994 6.69517 21.9955 6.08163 21.933 5.85764C21.847 5.54112 21.5033 5.11262 21.2377 4.98114C21.0463 4.88863 20.8276 4.88863 12.1172 4.88376C7.20733 4.87889 3.10993 4.8935 3.00447 4.91297ZM20.9565 5.98911C21.1635 6.10597 21.1791 6.20823 21.1791 7.58627V8.85718H12H2.82089V7.57653C2.82479 6.2131 2.83261 6.13032 3.02009 6.00372C3.09821 5.95015 4.69577 5.94042 11.9883 5.93555C18.2887 5.93555 20.8901 5.95015 20.9565 5.98911ZM21.1791 16.1905C21.1791 20.0811 21.1752 20.4658 21.1127 20.5924C21.0776 20.6703 21.0072 20.7531 20.9565 20.7823C20.8159 20.8602 3.17633 20.8554 3.03572 20.7775C2.81308 20.6509 2.82089 20.8164 2.82089 16.1856V11.9249H12H21.1791V16.1905Z" fill="#034703"/>
<path d="M5.41432 14.924C5.13309 15.0944 5.10965 15.6057 5.37135 15.82C5.44557 15.8833 5.99632 15.893 9.1094 15.9076C11.6288 15.9174 12.8045 15.9076 12.906 15.8687C13.2146 15.7567 13.3123 15.3282 13.0974 15.0311L12.9842 14.8704L9.25783 14.8607C5.96507 14.851 5.51978 14.8558 5.41432 14.924Z" fill="#034703"/>
<path d="M5.41432 16.9201C5.13309 17.0905 5.10965 17.6018 5.37135 17.8161C5.44166 17.8794 5.7932 17.894 7.50794 17.9037C8.89848 17.9135 9.60546 17.9037 9.70311 17.8648C10.0117 17.7528 10.1093 17.3243 9.89451 17.0272L9.78123 16.8665L7.65637 16.8568C5.80492 16.8422 5.51978 16.8519 5.41432 16.9201Z" fill="#034703"/>
</svg>
