<svg width="32" height="32" viewBox="0 0 32 32" fill="none" xmlns="http://www.w3.org/2000/svg">
<g clip-path="url(#clip0_9109_2236)">
<path d="M16.0003 31.0669C24.3214 31.0669 31.0669 24.3214 31.0669 16.0003C31.0669 7.67917 24.3214 0.933594 16.0003 0.933594C7.67917 0.933594 0.933594 7.67917 0.933594 16.0003C0.933594 24.3214 7.67917 31.0669 16.0003 31.0669Z" stroke="#034703" stroke-width="1.5" stroke-miterlimit="10" stroke-linecap="round" stroke-linejoin="round"/>
<path d="M16.0007 19.8672C11.334 19.8672 7.33398 22.5339 5.33398 26.5339C8.00065 29.3339 11.8673 30.9339 16.0007 30.9339C20.134 30.9339 24.0007 29.2005 26.6673 26.5339C24.6673 22.6672 20.6673 19.8672 16.0007 19.8672Z" stroke="#034703" stroke-width="1.5" stroke-miterlimit="10" stroke-linecap="round" stroke-linejoin="round"/>
<path d="M16.0002 16.4008C18.6512 16.4008 20.8002 14.2517 20.8002 11.6008C20.8002 8.94981 18.6512 6.80078 16.0002 6.80078C13.3492 6.80078 11.2002 8.94981 11.2002 11.6008C11.2002 14.2517 13.3492 16.4008 16.0002 16.4008Z" stroke="#034703" stroke-width="1.5" stroke-miterlimit="10" stroke-linecap="round" stroke-linejoin="round"/>
</g>
<defs>
<clipPath id="clip0_9109_2236">
<rect width="32" height="32" fill="white"/>
</clipPath>
</defs>
</svg>
