<svg width="20" height="20" viewBox="0 0 20 20" fill="none" xmlns="http://www.w3.org/2000/svg">
<path d="M15.6499 4.35863C14.4358 3.14086 12.8617 2.34669 11.1608 2.09382C9.45995 1.84095 7.72287 2.14285 6.20706 2.95476C4.69125 3.76668 3.47739 5.0454 2.7454 6.60138C2.01342 8.15736 1.80226 9.90779 2.14324 11.5932C2.48422 13.2786 3.35919 14.8093 4.63844 15.9584C5.9177 17.1075 7.53315 17.8138 9.24536 17.9726C10.9576 18.1315 12.6754 17.7344 14.1442 16.8403C15.613 15.9462 16.7546 14.6025 17.3999 13.0086H15.1799C14.5618 14.1003 13.617 14.9708 12.4785 15.4977C11.34 16.0246 10.0649 16.1814 8.8327 15.946C7.60045 15.7105 6.47299 15.0948 5.60887 14.1853C4.74475 13.2758 4.18745 12.1184 4.01533 10.8757C3.84322 9.63304 4.06495 8.36768 4.64935 7.25757C5.23375 6.14747 6.15141 5.24847 7.27328 4.687C8.39516 4.12553 9.66481 3.92983 10.9037 4.12744C12.1426 4.32505 13.2883 4.90601 14.1799 5.78863L10.9999 9.00863H17.9999V2.00863L15.6499 4.35863Z" fill="#034703"/>
</svg>
